<svg viewBox="0 0 512.00106 512.00106" xmlns="http://www.w3.org/2000/svg"><path d="m512 256c0 141.386719-114.613281 256-256 256-141.382812 0-256-114.613281-256-256 0-141.382812 114.617188-256 256-256 141.386719 0 256 114.617188 256 256zm0 0" fill="#93dcfc"/><path d="m285.535156 467.554688c-3.183594.449218-6.410156.820312-9.648437 1.125-117.453125 10.976562-221.574219-75.335938-232.5625-192.792969-10.980469-117.453125 75.335937-221.574219 192.789062-232.5625 16.910157-1.582031 33.550781-1.148438 49.671875 1.121093 95.839844 13.40625 173.484375 91.125 182.894532 191.667969 10.675781 114.214844-70.644532 215.820313-183.144532 231.441407zm0 0" fill="#07a9f0"/><path d="m285.535156 467.554688c-95.847656-13.402344-173.496094-91.125-182.894531-191.667969-10.675781-114.214844 70.644531-215.820313 183.144531-231.441407 95.839844 13.40625 173.484375 91.125 182.894532 191.667969 10.675781 114.214844-70.644532 215.820313-183.144532 231.441407zm0 0" fill="#40c1fa"/><path d="m346.542969 174.824219v162.351562c0 6.867188-5.621094 12.488281-12.488281 12.488281h-156.105469c-6.871094 0-12.488281-5.621093-12.488281-12.488281v-162.351562c0-6.867188 5.617187-12.488281 12.488281-12.488281h156.105469c6.867187 0 12.488281 5.621093 12.488281 12.488281zm0 0" fill="#ebe1dc"/><path d="m346.542969 174.824219v149.675781c-86.109375-4.703125-154.691407-75.253906-156.273438-162.164062h143.785157c6.867187 0 12.488281 5.621093 12.488281 12.488281zm0 0" fill="#fff5f5"/></svg>